name rise38.3101peak57.3503fall81.6963.mot
datacolumns 19
datarows 36
range 18.20493700000000 18.26327100000000
endheader
time	ground_force1_vx	ground_force1_vy	ground_force1_vz	ground_force1_px	ground_force1_py	ground_force1_pz	ground_force2_vx	ground_force2_vy	ground_force2_vz	ground_force2_px	ground_force2_py	ground_force2_pz	ground_torque1_x	ground_torque1_y	ground_torque1_z	ground_torque2_x	ground_torque2_y	ground_torque2_z	
18.20493700000000	5.47551200000000	668.42243099999996	45.85563300000000	0.22110400000000	0.00000000000000	0.11370100000000	0.00000000000000	0.00000000000000	0.00000000000000	0.00000000000000	0.00000000000000	0.00000000000000	0.00000000000000	19.75028300000000	0.00000000000000	0.00000000000000	0.00000000000000	0.00000000000000	
18.20660500000000	4.99451500000000	670.03536899999995	45.99183700000000	0.22038500000000	0.00000000000000	0.11366100000000	0.00000000000000	0.00000000000000	0.00000000000000	0.00000000000000	0.00000000000000	0.00000000000000	0.00000000000000	19.91218700000000	0.00000000000000	0.00000000000000	0.00000000000000	0.00000000000000	
18.20826600000000	4.49625600000000	671.70153300000004	46.12808200000000	0.21963500000000	0.00000000000000	0.11362100000000	0.00000000000000	0.00000000000000	0.00000000000000	0.00000000000000	0.00000000000000	0.00000000000000	0.00000000000000	20.07797500000000	0.00000000000000	0.00000000000000	0.00000000000000	0.00000000000000	
18.20993900000000	3.98033000000000	673.41942500000005	46.26396800000000	0.21885200000000	0.00000000000000	0.11358100000000	0.00000000000000	0.00000000000000	0.00000000000000	0.00000000000000	0.00000000000000	0.00000000000000	0.00000000000000	20.24745300000000	0.00000000000000	0.00000000000000	0.00000000000000	0.00000000000000	
18.21161700000000	3.44640100000000	675.18760899999995	46.39911700000000	0.21803600000000	0.00000000000000	0.11354200000000	0.00000000000000	0.00000000000000	0.00000000000000	0.00000000000000	0.00000000000000	0.00000000000000	0.00000000000000	20.42043200000000	0.00000000000000	0.00000000000000	0.00000000000000	0.00000000000000	
18.21327000000000	2.89420700000000	677.00471800000003	46.53318000000000	0.21718400000000	0.00000000000000	0.11350200000000	0.00000000000000	0.00000000000000	0.00000000000000	0.00000000000000	0.00000000000000	0.00000000000000	0.00000000000000	20.59672600000000	0.00000000000000	0.00000000000000	0.00000000000000	0.00000000000000	
18.21493500000000	2.32355700000000	678.86944800000003	46.66583300000000	0.21629800000000	0.00000000000000	0.11346300000000	0.00000000000000	0.00000000000000	0.00000000000000	0.00000000000000	0.00000000000000	0.00000000000000	0.00000000000000	20.77615500000000	0.00000000000000	0.00000000000000	0.00000000000000	0.00000000000000	
18.21660300000000	1.73433800000000	680.78056200000003	46.79678200000000	0.21537600000000	0.00000000000000	0.11342400000000	0.00000000000000	0.00000000000000	0.00000000000000	0.00000000000000	0.00000000000000	0.00000000000000	0.00000000000000	20.95854400000000	0.00000000000000	0.00000000000000	0.00000000000000	0.00000000000000	
18.21827300000000	1.12650600000000	682.73688400000003	46.92576500000000	0.21441800000000	0.00000000000000	0.11338600000000	0.00000000000000	0.00000000000000	0.00000000000000	0.00000000000000	0.00000000000000	0.00000000000000	0.00000000000000	21.14372400000000	0.00000000000000	0.00000000000000	0.00000000000000	0.00000000000000	
18.21993100000000	0.50009500000000	684.73729900000001	47.05254800000000	0.21342500000000	0.00000000000000	0.11334700000000	0.00000000000000	0.00000000000000	0.00000000000000	0.00000000000000	0.00000000000000	0.00000000000000	0.00000000000000	21.33153000000000	0.00000000000000	0.00000000000000	0.00000000000000	0.00000000000000	
18.22160700000000	-0.14478800000000	686.78075000000001	47.17693300000000	0.21239700000000	0.00000000000000	0.11330900000000	0.00000000000000	0.00000000000000	0.00000000000000	0.00000000000000	0.00000000000000	0.00000000000000	0.00000000000000	21.52180500000000	0.00000000000000	0.00000000000000	0.00000000000000	0.00000000000000	
18.22327200000000	-0.80796000000000	688.86623299999997	47.29875600000000	0.21133500000000	0.00000000000000	0.11327100000000	0.00000000000000	0.00000000000000	0.00000000000000	0.00000000000000	0.00000000000000	0.00000000000000	0.00000000000000	21.71439700000000	0.00000000000000	0.00000000000000	0.00000000000000	0.00000000000000	
18.22493200000000	-1.48916700000000	690.99279700000000	47.41788400000000	0.21023900000000	0.00000000000000	0.11323300000000	0.00000000000000	0.00000000000000	0.00000000000000	0.00000000000000	0.00000000000000	0.00000000000000	0.00000000000000	21.90916100000000	0.00000000000000	0.00000000000000	0.00000000000000	0.00000000000000	
18.22660000000000	-2.18808100000000	693.15953400000001	47.53422500000000	0.20911200000000	0.00000000000000	0.11319500000000	0.00000000000000	0.00000000000000	0.00000000000000	0.00000000000000	0.00000000000000	0.00000000000000	0.00000000000000	22.10595600000000	0.00000000000000	0.00000000000000	0.00000000000000	0.00000000000000	
18.22827300000000	-2.90430500000000	695.36557900000003	47.64771900000000	0.20795300000000	0.00000000000000	0.11315700000000	0.00000000000000	0.00000000000000	0.00000000000000	0.00000000000000	0.00000000000000	0.00000000000000	0.00000000000000	22.30464800000000	0.00000000000000	0.00000000000000	0.00000000000000	0.00000000000000	
18.22993100000000	-3.63736700000000	697.61010099999999	47.75834600000000	0.20676600000000	0.00000000000000	0.11311900000000	0.00000000000000	0.00000000000000	0.00000000000000	0.00000000000000	0.00000000000000	0.00000000000000	0.00000000000000	22.50510700000000	0.00000000000000	0.00000000000000	0.00000000000000	0.00000000000000	
18.23160500000000	-4.38673300000000	699.89229999999998	47.86612100000000	0.20555000000000	0.00000000000000	0.11308100000000	0.00000000000000	0.00000000000000	0.00000000000000	0.00000000000000	0.00000000000000	0.00000000000000	0.00000000000000	22.70720800000000	0.00000000000000	0.00000000000000	0.00000000000000	0.00000000000000	
18.23326500000000	-5.15179800000000	702.21139900000003	47.97109900000000	0.20430900000000	0.00000000000000	0.11304300000000	0.00000000000000	0.00000000000000	0.00000000000000	0.00000000000000	0.00000000000000	0.00000000000000	0.00000000000000	22.91083100000000	0.00000000000000	0.00000000000000	0.00000000000000	0.00000000000000	
18.23493500000000	-5.93189600000000	704.56663800000001	48.07337000000000	0.20304500000000	0.00000000000000	0.11300500000000	0.00000000000000	0.00000000000000	0.00000000000000	0.00000000000000	0.00000000000000	0.00000000000000	0.00000000000000	23.11585600000000	0.00000000000000	0.00000000000000	0.00000000000000	0.00000000000000	
18.23660500000000	-6.72629700000000	706.95726700000000	48.17306500000000	0.20175900000000	0.00000000000000	0.11296600000000	0.00000000000000	0.00000000000000	0.00000000000000	0.00000000000000	0.00000000000000	0.00000000000000	0.00000000000000	23.32217100000000	0.00000000000000	0.00000000000000	0.00000000000000	0.00000000000000	
18.23827200000000	-7.53421300000000	709.38253999999995	48.27034900000000	0.20045400000000	0.00000000000000	0.11292800000000	0.00000000000000	0.00000000000000	0.00000000000000	0.00000000000000	0.00000000000000	0.00000000000000	0.00000000000000	23.52966200000000	0.00000000000000	0.00000000000000	0.00000000000000	0.00000000000000	
18.23993500000000	-8.35479800000000	711.84170500000005	48.36542800000000	0.19913300000000	0.00000000000000	0.11288900000000	0.00000000000000	0.00000000000000	0.00000000000000	0.00000000000000	0.00000000000000	0.00000000000000	0.00000000000000	23.73821900000000	0.00000000000000	0.00000000000000	0.00000000000000	0.00000000000000	
18.24160000000000	-9.18715500000000	714.33400099999994	48.45854200000000	0.19779700000000	0.00000000000000	0.11284900000000	0.00000000000000	0.00000000000000	0.00000000000000	0.00000000000000	0.00000000000000	0.00000000000000	0.00000000000000	23.94773100000000	0.00000000000000	0.00000000000000	0.00000000000000	0.00000000000000	
18.24326700000000	-10.03033400000000	716.85864700000002	48.54996900000000	0.19645000000000	0.00000000000000	0.11281000000000	0.00000000000000	0.00000000000000	0.00000000000000	0.00000000000000	0.00000000000000	0.00000000000000	0.00000000000000	24.15808900000000	0.00000000000000	0.00000000000000	0.00000000000000	0.00000000000000	
18.24493700000000	-10.88334100000000	719.41483300000004	48.64002100000000	0.19509400000000	0.00000000000000	0.11276900000000	0.00000000000000	0.00000000000000	0.00000000000000	0.00000000000000	0.00000000000000	0.00000000000000	0.00000000000000	24.36918000000000	0.00000000000000	0.00000000000000	0.00000000000000	0.00000000000000	
18.24660500000000	-11.74513400000000	722.00171899999998	48.72904400000000	0.19373100000000	0.00000000000000	0.11272800000000	0.00000000000000	0.00000000000000	0.00000000000000	0.00000000000000	0.00000000000000	0.00000000000000	0.00000000000000	24.58089300000000	0.00000000000000	0.00000000000000	0.00000000000000	0.00000000000000	
18.24826900000000	-12.61463500000000	724.61842000000001	48.81741800000000	0.19236600000000	0.00000000000000	0.11268700000000	0.00000000000000	0.00000000000000	0.00000000000000	0.00000000000000	0.00000000000000	0.00000000000000	0.00000000000000	24.79311200000000	0.00000000000000	0.00000000000000	0.00000000000000	0.00000000000000	
18.24994000000000	-13.49072600000000	727.26400400000000	48.90555400000000	0.19099900000000	0.00000000000000	0.11264500000000	0.00000000000000	0.00000000000000	0.00000000000000	0.00000000000000	0.00000000000000	0.00000000000000	0.00000000000000	25.00572000000000	0.00000000000000	0.00000000000000	0.00000000000000	0.00000000000000	
18.25160500000000	-14.37225800000000	729.93748100000005	48.99389500000000	0.18963400000000	0.00000000000000	0.11260200000000	0.00000000000000	0.00000000000000	0.00000000000000	0.00000000000000	0.00000000000000	0.00000000000000	0.00000000000000	25.21859600000000	0.00000000000000	0.00000000000000	0.00000000000000	0.00000000000000	
18.25327300000000	-15.25805400000000	732.63779799999998	49.08290800000000	0.18827400000000	0.00000000000000	0.11255800000000	0.00000000000000	0.00000000000000	0.00000000000000	0.00000000000000	0.00000000000000	0.00000000000000	0.00000000000000	25.43161400000000	0.00000000000000	0.00000000000000	0.00000000000000	0.00000000000000	
18.25493400000000	-16.14690800000000	735.36383000000001	49.17309000000000	0.18692000000000	0.00000000000000	0.11251400000000	0.00000000000000	0.00000000000000	0.00000000000000	0.00000000000000	0.00000000000000	0.00000000000000	0.00000000000000	25.64464300000000	0.00000000000000	0.00000000000000	0.00000000000000	0.00000000000000	
18.25659800000000	-17.03759700000000	738.11437899999999	49.26496200000000	0.18557600000000	0.00000000000000	0.11246900000000	0.00000000000000	0.00000000000000	0.00000000000000	0.00000000000000	0.00000000000000	0.00000000000000	0.00000000000000	25.85755000000000	0.00000000000000	0.00000000000000	0.00000000000000	0.00000000000000	
18.25826400000000	-17.92887800000000	740.88815799999998	49.35906600000000	0.18424400000000	0.00000000000000	0.11242300000000	0.00000000000000	0.00000000000000	0.00000000000000	0.00000000000000	0.00000000000000	0.00000000000000	0.00000000000000	26.07019100000000	0.00000000000000	0.00000000000000	0.00000000000000	0.00000000000000	
18.25993900000000	-18.81949600000000	743.68379600000003	49.45596300000000	0.18292600000000	0.00000000000000	0.11237600000000	0.00000000000000	0.00000000000000	0.00000000000000	0.00000000000000	0.00000000000000	0.00000000000000	0.00000000000000	26.28242100000000	0.00000000000000	0.00000000000000	0.00000000000000	0.00000000000000	
18.26160300000000	-19.70818400000000	746.49982199999999	49.55623100000000	0.18162400000000	0.00000000000000	0.11232800000000	0.00000000000000	0.00000000000000	0.00000000000000	0.00000000000000	0.00000000000000	0.00000000000000	0.00000000000000	26.49408600000000	0.00000000000000	0.00000000000000	0.00000000000000	0.00000000000000	
18.26327100000000	-20.59367200000000	749.33466799999997	49.66046500000000	0.18034100000000	0.00000000000000	0.11228000000000	0.00000000000000	0.00000000000000	0.00000000000000	0.00000000000000	0.00000000000000	0.00000000000000	0.00000000000000	26.70502700000000	0.00000000000000	0.00000000000000	0.00000000000000	0.00000000000000	
